<svg xmlns="http://www.w3.org/2000/svg" version="1.1" xmlns:xlink="http://www.w3.org/1999/xlink" xmlns:svgjs="http://svgjs.dev/svgjs" width="1000" height="1000" viewBox="0 0 1000 1000"><rect width="1000" height="1000" fill="#ffffff"></rect><g transform="matrix(0.7,0,0,0.7,150,106.25)"><svg viewBox="0 0 320 360" data-background-color="#ffffff" preserveAspectRatio="xMidYMid meet" height="1125" width="1000" xmlns="http://www.w3.org/2000/svg" xmlns:xlink="http://www.w3.org/1999/xlink"><defs></defs><g id="tight-bounds" transform="matrix(1,0,0,1,0,0)"><svg viewBox="0 0 320 360" height="360" width="320"><g><svg></svg></g><g><svg viewBox="0 0 320 360" height="360" width="320"><g><path d="M165.217 303.356c-1.404-1.755-2.809-0.702-2.808-1.755-8.426 2.106-24.223-3.511-30.894-2.809 1.404-2.106-2.106-1.755-2.106-3.159-1.404 2.106-2.809 0-4.915 0.702-2.106-5.266-10.532-1.404-11.585-8.075-4.915 0-6.67-2.809-11.586-5.617 0.351-0.351 0.702-0.351 1.054-0.702-2.457-0.351-2.457-1.755-4.564-1.755l0.702-1.405c-3.862-0.702-5.266-6.67-10.883-8.776-1.755-0.351-5.617-6.319-7.723-7.724-1.053-0.702-2.809-0.702-0.352-1.053-0.351-0.351-0.351-1.053 0-1.404-2.457-0.702-2.809-2.809-5.968-3.862-0.351-1.053 0.702-1.755 0-2.457-0.702-0.351-1.755 0.351-2.457 0-0.351 6.319 6.67 7.021 8.777 12.287-0.702-0.702-1.755-2.809-2.458-1.404-0.351 1.053 2.809 4.915 2.809 2.808-1.053 0.702-1.404-1.053-0.703-1.404 1.053 1.755 3.16 1.404 3.16 2.809-1.053 1.053-2.457-1.053-2.106 0.702 3.16 1.755 2.809 3.511 4.563 5.968-1.404-1.755-1.755 1.404-3.159 0-0.351-5.266-6.319-4.213-6.319-9.479-0.702-1.755-1.404-0.351-2.458-1.053 1.404-1.404-4.213-6.319-4.213-4.564-1.755-2.106-0.702-2.809-1.053-4.213-1.404-0.351-0.351 1.404-1.404 0.351 1.404-2.457-1.755-5.617-3.862-8.074l1.405-0.702c-2.457-1.404-2.809-4.213-4.564-7.373-2.106 3.16 4.213 10.181 3.159 11.585 0 0.351 2.457 3.16 3.16 4.564 2.809 4.915 4.915 10.883 8.777 13.692-0.702-0.351-0.351-2.457 0.702-1.404 0 1.053-0.702 2.106-0.702 3.159 2.106 2.106 3.862 3.862 5.968 5.968-4.564-2.809-9.128-5.617-12.288-9.83 1.755-0.351 3.511 2.809 4.915 2.458-3.511-2.809-2.457-3.862-3.861-7.372-1.404-1.053 0.351 1.404-1.054 1.755-4.564-4.213-8.075-6.67-10.181-10.532 0.351-0.351 0.702-0.702 0.703-1.404-0.351-0.351-0.351-0.351-0.703-0.702 2.106 2.106 2.809 3.862 5.266 4.212-1.053-1.053 0-1.404-1.404-2.457-0.702-1.404-1.755 0.702-2.457-0.351 0.702-1.053 0-2.457 0-3.511-0.702 0-1.404 0-1.756-1.053-0.702-0.351-1.053 0-1.404 0.702-0.351-0.351-0.351-1.053-0.702-1.404v-0.351c-0.351-0.351-0.702-1.053-1.053-1.405-2.809-7.372-4.564-17.202-8.426-23.521 1.053-4.213-0.702-12.638-1.755-14.745 1.053-1.755 0.351-9.83-0.351-11.234-1.755 0.702 0.351 4.564-1.404 5.617-1.755-7.723 1.053-16.5 0.351-23.521 0.702 0 1.404 0 1.404-0.351-1.053-1.053 0.702-3.16 0.351-5.617 1.404-3.16-3.16 4.564-3.16 7.723-0.351 0.702-1.755 0-1.404 1.756 0 2.457 0.702 7.372-0.702 10.883-0.702 0-0.702-0.702-1.404-0.351-0.351 1.755-0.702 3.862-1.053 5.617-0.351-0.702-0.702-1.755-0.703-2.107-1.755-8.777 0-18.958-0.702-26.33 1.404 0 1.404-2.106 2.458-2.808-0.351 2.809-1.053 6.319 0.702 7.021 1.404-13.692 4.213-28.787 10.532-43.532 4.564-10.883 11.234-21.766 19.308-30.543 0.702 1.053-0.351 3.511 0 4.564 7.021-7.372 11.585-16.149 19.309-21.064 0.351 1.755-3.16 3.16-3.16 4.564 3.16-3.16 4.213-2.106 7.724-3.159 1.053-1.404-1.404 0-1.756-1.405 2.106-1.404 3.511-3.16 4.915-4.212 0 0.351-0.351 0.351-0.351 0.702 3.862-1.053 4.213-3.16 7.022-3.862-0.351-0.351-1.053-0.702-2.107-0.351 0.702-0.351 1.755-1.053 2.809-1.404-0.351 0-0.351 0.351-0.702 0.351 2.106-1.053 0.351 0.351 0.351 1.053 0.351 0 0.702-0.351 0.702-0.351-2.106 1.404-3.511 2.106-4.213 4.564 1.053-0.702 1.404 0 2.809-1.054 1.404-0.702-0.351-1.755 0.702-2.457 1.053 0.702 2.457 0.351 3.51 0.351 0-0.702 0.351-1.404 1.054-1.755 0.351-0.702 0-1.053-0.352-1.053 0.351-0.351 0.702-0.351 1.405-0.703 0 0 0.351 0 0.351 0.351 5.968-2.809 12.638-5.266 18.957-7.372 3.862-0.351 8.777-0.351 10.883-2.808-0.702 0-1.404 0.351-1.755 0 0.351 0 1.053-0.351 1.404-0.351 0.702 0.702 1.755 0 0.702 1.404 0.351 0 0.351 0 0.703-0.351 0 0.351 0 0.351 0.351 0.702 0.351 0 0.702-0.351 1.053-1.053 0.351 0 0.702 0 1.053-0.351l-0.351 0.351c2.809-0.702 5.266-0.351 9.128-1.054 0-0.351 0-0.702 0-1.053 0.702 0 1.053-0.351 1.755-0.351v0.351c1.404-0.702 2.809 0.702 2.808 0 0.351 0 0.351 0 0.703 0 0 0.702-0.351 1.053-0.351 1.405 1.755 0 2.809 0 3.51-1.054-0.351-0.351-0.702-0.351-1.053-0.351 0.702 0 1.404-0.351 2.106-0.702 1.053 0.351 1.404 0.702 1.405 2.107 1.755-3.16 7.372 0.702 9.829 0 1.053 0 0.702-1.404 1.405-2.107 0.351 0 0.702 0 1.053 0 1.755 1.404 4.213 2.809 7.372 3.16-2.809-0.702 0.351-1.053 0.702-1.405-0.702 0-0.702-0.351-0.702-0.702 1.053 0 2.106 0.351 3.16 0.351 0 0.702 0.351 1.053 1.053 1.054 0.702 0 0.702-0.351 0.702-1.054 1.053 0 1.755 0 2.809 0.351-0.351 1.404 1.755 1.755 2.457 2.809-2.809-0.702-5.968-1.755-7.021 0 11.234 2.457 23.521 5.968 35.457 11.936 0 0 0 0 0 0.351h0.352c2.106 1.053 4.213 2.106 6.319 3.16 1.404 0.702 2.457 1.404 3.861 2.457 0 0.351 0 0.702 0.703 0.702h0.351c1.404 1.053 2.809 1.755 4.212 2.809 1.404 2.106 2.809 4.915 5.266 4.213 5.266 8.075 10.883 11.234 15.447 19.659 0.351-1.404 1.404 3.16 3.16 3.511-2.809-0.351 1.755 1.755-1.053 1.404 2.457 2.457 3.16 3.511 3.51 6.319-0.702-1.404-1.053-1.755-1.404-0.351-0.351 2.106 2.457-0.351 3.511 1.756-2.106 0-1.404 1.404-1.054 3.159 1.053-1.053 0.702-2.106 1.756-1.755 1.404 1.404-0.702 1.755-0.351 2.809 1.053-1.404 1.404-0.702 2.808 0-1.755 0.351 1.053 2.809-1.053 1.755 1.404 1.755 1.755 2.809 1.053 4.564-1.404-2.106-0.351-3.511-2.457-3.16 4.213 3.511 2.106 11.585 7.021 12.287-3.16 0.702 0 2.106-1.755 2.458 2.106 0.702 1.053 3.511 3.51 4.213-0.351 1.755-1.053 2.809-1.404 4.563 1.053 1.404 1.404 4.213 3.16 4.564-1.053 1.053-0.351 3.862-1.404 4.915 1.404-0.702 2.106-0.702 3.159 0.702-1.755 1.404-0.351 2.809-1.404 3.16 3.16 8.075-0.702 24.575 1.053 30.894-2.106-1.053-1.404 2.457-2.808 2.457 2.457 1.053 0.351 2.809 1.404 4.564-4.915 2.809 0 10.532-6.67 12.287 0.702 4.915-2.106 7.021-4.213 12.288-0.351-0.351-0.351-0.702-0.702-1.054-0.351 2.457-1.755 2.809-1.054 4.915l-1.404-0.702c0 3.862-5.968 5.968-7.372 11.936-0.351 1.755-5.617 6.319-7.022 8.777-0.702 1.053-0.351 2.809-1.053 0.351-0.351 0.351-1.053 0.351-1.404 0.351-0.351 2.457-2.457 3.16-3.16 6.319-0.702 0.351-1.755-0.702-2.457 0.351 0 0.702 0.702 1.755 0.351 2.458 6.319-0.351 6.319-7.723 11.234-10.181-0.351 1.053-2.457 2.106-1.053 2.808 1.053 0 4.213-3.511 2.457-3.159 1.053 0.702-1.053 1.404-1.404 1.053 1.755-1.404 1.053-3.16 2.458-3.511 1.053 0.702-1.053 2.457 1.053 2.107 1.404-3.16 3.16-3.511 5.266-5.266-1.404 1.404 1.755 1.755 0.351 3.159-5.266 1.053-3.511 7.021-8.777 7.724-1.404 1.053-0.351 1.404-0.702 2.457-1.755-1.053-5.617 4.915-4.213 4.564-1.755 1.755-2.809 1.053-4.212 1.404-0.351 1.404 1.404 0.351 0.702 1.405-2.457-1.053-5.617 2.457-7.724 4.915l-1.053-1.054c-1.053 2.809-3.862 3.16-7.021 5.266 3.511 1.755 9.479-5.617 11.234-4.564 0.351 0 3.16-2.809 4.213-3.861 4.564-3.511 10.181-6.319 12.287-10.181-0.351 0.702-2.457 0.702-1.404-0.351 1.053-0.351 2.106 0.351 3.159 0.351 5.617-7.723 12.638-14.043 17.905-23.17 0.351-0.351 0.702-1.053 1.053-1.756-0.702 2.106-1.755 3.862-2.458 5.968-5.617 3.862-7.723 15.096-14.393 16.851 0.351 3.862-3.16 4.915-4.915 9.479-1.053 1.404-1.755-1.053-2.809 0.702 1.053 4.915-8.777 4.564-8.425 9.128-0.702 0.351-1.755 0.702-2.458 1.404h-0.351c-0.351 0.351-0.351 0.351-0.702 0.702-1.755 1.053-3.16 2.106-4.564 3.16-4.915 2.809-11.585 4.915-16.851 7.723v-0.351c-1.404 0.702-3.16 0.351-2.809 1.756-1.053 0.702-2.106 1.404-3.159 2.106-0.351 0-0.351 0-0.702 0 0 0-0.351-0.351-0.702-0.351-0.702 0-0.702 0-1.054 0.351-4.564 0.351-10.532 2.457-12.287 3.862-1.755-1.053-9.83 0.702-11.234 1.404 0.702 1.053 2.809 0 4.564 0-1.053 0.351-2.106 0.702-2.458 1.404-0.351 0-0.351 0-0.702 0-0.351-1.053-1.404 0-1.755-0.351h0.351c-0.351-1.404-1.404-2.106-3.16-1.755 0 0.702 0 1.053-0.351 1.755 0.702 0 2.809-1.053 2.809 0-0.351 0-0.351 0.351 0 0.351-0.702 0.702-1.755 0.702-2.458 1.054-1.404 0-3.16 0-4.563 0-0.351-0.351-0.702-0.351-1.405-0.703-0.351 0.351-1.053 0.351-1.404 0.703-2.106 0-4.564 0.351-6.319 0.702 0-0.702 0-1.404-0.702-1.405-1.053 1.404-3.16-0.351-5.617 0.352-2.457-0.702 1.404 1.053 4.915 1.755-0.351 0.351-0.702 0.702-1.756 1.053M116.068 308.271c-4.915-4.564-15.096-6.67-16.851-10.181-2.809-0.351-7.021-5.617-10.532-6.319 1.755 0 0.351-1.053 0-1.755-0.702 0.702-1.404 1.053-2.106 1.053 0-2.809-2.809-4.564-5.266-6.319 1.755 1.053 3.16 1.755 5.266 2.106 0-0.702 0-1.404 0.702-1.404 2.457 2.457 5.266 4.915 8.425 7.372 4.213 3.862 25.979 13.692 29.841 15.447 0 0-0.702 1.404-0.351 1.404 1.755 1.053 3.16-1.053 3.511 1.404-5.617 0.702-7.723-3.16-12.639-2.808M277.909 226.824v0.351 0c-0.351 0 0-0.351 0-0.351M136.079 64.281c-0.351 0.351-0.702 0.351-0.702 0.351 0-0.351 0.351-0.351 0.702-0.351M129.409 66.036c0 0.351 0 0.351 0 0 0 0.351 0 0.351 0 0 0 0.351 0 0 0 0M106.238 73.408v0c0.351-0.351 0.351-0.351 0.703-0.351-0.351 0-0.702 0.351-0.703 0.351M162.409 61.823c-0.702 0-1.053 0-1.404-0.351 0.351 0 0.702 0 1.053 0h0.351c0 0 0 0 0 0.351M168.728 62.525c-0.351-0.351-1.404-0.702-2.457-0.702 0-0.351 0.351-0.702 0.351-0.702 0.351 0 0.702 0 1.053 0 0 0 0.351 0 0.351 0.351 0 0 0 0 0-0.351 0.351 0 0.351 0 0.702 0 0.351 0.702 0.702 1.053 0 1.404M180.313 63.579c-1.755 0.351-2.809-0.351-4.564-1.405 1.053 0 2.457 0.351 3.511 0.702 0.351 0 0.702 0.351 1.053 0.703M305.292 113.43c-0.702 0.351-1.053 0.351-1.755-1.053-5.617-11.936-15.798-29.138-30.543-43.532-14.394-14.745-33.702-26.681-51.255-33.001 1.053 0.351 2.457 1.053 1.755 1.756-15.447-5.968-30.192-9.479-44.234-10.883-37.915-5.968-77.585 2.106-108.128 21.766 0.351 0.702 0.351 1.053-0.702 1.755-11.234 7.021-27.032 19.309-39.671 35.458-12.638 16.149-22.468 36.511-26.681 54.766 0.351-1.053 0.702-2.809 1.405-2.107-9.128 36.16-6.67 67.053 5.968 93.735 0.702-0.702-1.755-4.213 0.351-3.862 1.404 3.862 3.16 8.075 5.266 11.936 2.457 5.617 5.266 12.989 9.128 14.745-9.83-19.309-16.5-41.426-17.203-61.085 1.404 2.809 1.053 8.777 3.16 11.234 0.702-13.34-2.457-31.245 2.106-43.883-1.053 6.67-1.755 15.798-1.053 24.925 0 6.67 3.16 25.277 5.266 27.032-0.351-0.351-0.351-2.106 0-2.106 1.053 2.106-1.404 3.16 0.351 3.511 0-0.702 0.351-0.702 0.702-0.703 3.511 7.723 8.075 19.66 11.585 25.628 4.213 7.723 9.83 14.745 16.149 21.064 0 0.351 0.351 0.351 0.352 0.702 0.702 1.755 3.16 3.862 3.861 5.266 0.351 0.702-0.351 1.755 0 2.458 5.266 9.83 12.989 19.66 22.468 27.383 5.968 7.021 15.447 14.394 27.032 20.713 11.234 5.968 24.223 10.883 36.16 13.691 8.426 2.106 18.606 2.457 24.926 3.862 8.426 1.755 23.17-0.702 30.542-2.107 44.234-6.67 88.117-36.862 110.235-80.393 22.819-43.883 22.117-97.596 2.457-138.671" fill="#090c16" data-fill-palette-color="tertiary"></path></g><g transform="matrix(1,0,0,1,80,146.41699160440743)"><svg viewBox="0 0 160 67.16601679118517" height="67.16601679118517" width="160"><g><svg viewBox="0 0 160 67.16601679118517" height="67.16601679118517" width="160"><g><svg viewBox="0 0 160 67.16601679118517" height="67.16601679118517" width="160"><g transform="matrix(1,0,0,1,0,50.37483162590702)"><svg viewBox="0 0 160 16.79118516527815" height="16.79118516527815" width="160"><g><svg viewBox="0 0 160 16.79118516527815" height="16.79118516527815" width="160"><g><svg viewBox="0 0 160 16.79118516527815" height="16.79118516527815" width="160"><g transform="matrix(1,0,0,1,0,0)"><svg width="160" viewBox="1.85 -38.6 372.07 39.050000000000004" height="16.79118516527815" data-palette-color="#090c16"><path d="M1.85-17.45Q1.85-22.55 4.23-26.6 6.6-30.65 10.68-32.93 14.75-35.2 19.6-35.2L19.6-35.2Q25.15-35.2 29.48-32.48 33.8-29.75 35.75-24.75L35.75-24.75 28.9-24.75Q27.55-27.5 25.15-28.85 22.75-30.2 19.6-30.2L19.6-30.2Q16.15-30.2 13.45-28.65 10.75-27.1 9.22-24.2 7.7-21.3 7.7-17.45L7.7-17.45Q7.7-13.6 9.22-10.7 10.75-7.8 13.45-6.23 16.15-4.65 19.6-4.65L19.6-4.65Q22.75-4.65 25.15-6 27.55-7.35 28.9-10.1L28.9-10.1 35.75-10.1Q33.8-5.1 29.48-2.4 25.15 0.3 19.6 0.3L19.6 0.3Q14.7 0.3 10.65-1.98 6.6-4.25 4.23-8.3 1.85-12.35 1.85-17.45L1.85-17.45ZM42.4-37L48.1-37 48.1 0 42.4 0 42.4-37ZM53.7-13.9Q53.7-18.05 55.42-21.25 57.15-24.45 60.12-26.23 63.1-28 66.7-28L66.7-28Q69.95-28 72.37-26.73 74.8-25.45 76.25-23.55L76.25-23.55 76.25-27.55 82-27.55 82 0 76.25 0 76.25-4.1Q74.8-2.15 72.3-0.85 69.8 0.45 66.6 0.45L66.6 0.45Q63.05 0.45 60.1-1.38 57.15-3.2 55.42-6.48 53.7-9.75 53.7-13.9L53.7-13.9ZM76.25-13.8Q76.25-16.65 75.07-18.75 73.9-20.85 72-21.95 70.1-23.05 67.9-23.05L67.9-23.05Q65.7-23.05 63.8-21.98 61.9-20.9 60.72-18.82 59.55-16.75 59.55-13.9L59.55-13.9Q59.55-11.05 60.72-8.9 61.9-6.75 63.82-5.63 65.75-4.5 67.9-4.5L67.9-4.5Q70.1-4.5 72-5.6 73.9-6.7 75.07-8.83 76.25-10.95 76.25-13.8L76.25-13.8ZM99.49 0.45Q96.24 0.45 93.67-0.73 91.09-1.9 89.59-3.93 88.09-5.95 87.99-8.45L87.99-8.45 93.89-8.45Q94.04-6.7 95.57-5.53 97.09-4.35 99.39-4.35L99.39-4.35Q101.79-4.35 103.12-5.28 104.44-6.2 104.44-7.65L104.44-7.65Q104.44-9.2 102.97-9.95 101.49-10.7 98.29-11.6L98.29-11.6Q95.19-12.45 93.24-13.25 91.29-14.05 89.87-15.7 88.44-17.35 88.44-20.05L88.44-20.05Q88.44-22.25 89.74-24.08 91.04-25.9 93.47-26.95 95.89-28 99.04-28L99.04-28Q103.74-28 106.62-25.63 109.49-23.25 109.69-19.15L109.69-19.15 103.99-19.15Q103.84-21 102.49-22.1 101.14-23.2 98.84-23.2L98.84-23.2Q96.59-23.2 95.39-22.35 94.19-21.5 94.19-20.1L94.19-20.1Q94.19-19 94.99-18.25 95.79-17.5 96.94-17.07 98.09-16.65 100.34-16L100.34-16Q103.34-15.2 105.27-14.38 107.19-13.55 108.59-11.95 109.99-10.35 110.04-7.7L110.04-7.7Q110.04-5.35 108.74-3.5 107.44-1.65 105.07-0.6 102.69 0.45 99.49 0.45L99.49 0.45ZM130.44-28Q133.59-28 136.06-26.65 138.54-25.3 139.97-22.65 141.39-20 141.39-16.25L141.39-16.25 141.39 0 135.74 0 135.74-15.4Q135.74-19.1 133.89-21.08 132.04-23.05 128.84-23.05L128.84-23.05Q125.64-23.05 123.77-21.08 121.89-19.1 121.89-15.4L121.89-15.4 121.89 0 116.19 0 116.19-37 121.89-37 121.89-24.35Q123.34-26.1 125.57-27.05 127.79-28 130.44-28L130.44-28ZM173.59 0.45Q169.69 0.45 166.54-1.33 163.39-3.1 161.59-6.33 159.79-9.55 159.79-13.8L159.79-13.8Q159.79-18 161.64-21.25 163.49-24.5 166.69-26.25 169.89-28 173.84-28L173.84-28Q177.79-28 180.99-26.25 184.19-24.5 186.04-21.25 187.89-18 187.89-13.8L187.89-13.8Q187.89-9.6 185.99-6.35 184.09-3.1 180.81-1.33 177.54 0.45 173.59 0.45L173.59 0.45ZM173.59-4.5Q175.79-4.5 177.71-5.55 179.64-6.6 180.84-8.7 182.04-10.8 182.04-13.8L182.04-13.8Q182.04-16.8 180.89-18.88 179.74-20.95 177.84-22 175.94-23.05 173.74-23.05L173.74-23.05Q171.54-23.05 169.66-22 167.79-20.95 166.69-18.88 165.59-16.8 165.59-13.8L165.59-13.8Q165.59-9.35 167.86-6.93 170.14-4.5 173.59-4.5L173.59-4.5ZM205.08-27.55L205.08-22.9 199.98-22.9 199.98 0 194.23 0 194.23-22.9 190.98-22.9 190.98-27.55 194.23-27.55 194.23-29.5Q194.23-34.25 196.76-36.43 199.28-38.6 204.68-38.6L204.68-38.6 204.68-33.85Q202.08-33.85 201.03-32.88 199.98-31.9 199.98-29.5L199.98-29.5 199.98-27.55 205.08-27.55ZM241.73-17.85Q244.53-17.35 246.48-14.9 248.43-12.45 248.43-9.35L248.43-9.35Q248.43-6.7 247.05-4.58 245.68-2.45 243.08-1.23 240.48 0 237.03 0L237.03 0 223.13 0 223.13-34.75 236.38-34.75Q239.93-34.75 242.48-33.55 245.03-32.35 246.33-30.33 247.63-28.3 247.63-25.8L247.63-25.8Q247.63-22.8 246.03-20.8 244.43-18.8 241.73-17.85L241.73-17.85ZM228.83-30.1L228.83-20.15 235.88-20.15Q238.68-20.15 240.25-21.43 241.83-22.7 241.83-25.1L241.83-25.1Q241.83-27.45 240.25-28.78 238.68-30.1 235.88-30.1L235.88-30.1 228.83-30.1ZM236.53-4.65Q239.43-4.65 241.08-6.05 242.73-7.45 242.73-9.95L242.73-9.95Q242.73-12.5 240.98-14 239.23-15.5 236.33-15.5L236.33-15.5 228.83-15.5 228.83-4.65 236.53-4.65ZM260.33-23.55Q261.58-25.65 263.65-26.83 265.73-28 268.58-28L268.58-28 268.58-22.1 267.13-22.1Q263.78-22.1 262.05-20.4 260.33-18.7 260.33-14.5L260.33-14.5 260.33 0 254.63 0 254.63-27.55 260.33-27.55 260.33-23.55ZM271.92-13.9Q271.92-18.05 273.65-21.25 275.37-24.45 278.35-26.23 281.32-28 284.92-28L284.92-28Q288.17-28 290.6-26.73 293.02-25.45 294.47-23.55L294.47-23.55 294.47-27.55 300.22-27.55 300.22 0 294.47 0 294.47-4.1Q293.02-2.15 290.52-0.85 288.02 0.45 284.82 0.45L284.82 0.45Q281.27 0.45 278.32-1.38 275.37-3.2 273.65-6.48 271.92-9.75 271.92-13.9L271.92-13.9ZM294.47-13.8Q294.47-16.65 293.3-18.75 292.12-20.85 290.22-21.95 288.32-23.05 286.12-23.05L286.12-23.05Q283.92-23.05 282.02-21.98 280.12-20.9 278.95-18.82 277.77-16.75 277.77-13.9L277.77-13.9Q277.77-11.05 278.95-8.9 280.12-6.75 282.05-5.63 283.97-4.5 286.12-4.5L286.12-4.5Q288.32-4.5 290.22-5.6 292.12-6.7 293.3-8.83 294.47-10.95 294.47-13.8L294.47-13.8ZM310.62-31.2Q309.07-31.2 308.02-32.25 306.97-33.3 306.97-34.85L306.97-34.85Q306.97-36.4 308.02-37.45 309.07-38.5 310.62-38.5L310.62-38.5Q312.12-38.5 313.17-37.45 314.22-36.4 314.22-34.85L314.22-34.85Q314.22-33.3 313.17-32.25 312.12-31.2 310.62-31.2L310.62-31.2ZM307.72-27.55L313.42-27.55 313.42 0 307.72 0 307.72-27.55ZM334.82-28Q338.07-28 340.64-26.65 343.22-25.3 344.67-22.65 346.12-20 346.12-16.25L346.12-16.25 346.12 0 340.47 0 340.47-15.4Q340.47-19.1 338.62-21.08 336.77-23.05 333.57-23.05L333.57-23.05Q330.37-23.05 328.49-21.08 326.62-19.1 326.62-15.4L326.62-15.4 326.62 0 320.92 0 320.92-27.55 326.62-27.55 326.62-24.4Q328.02-26.1 330.19-27.05 332.37-28 334.82-28L334.82-28ZM363.37 0.45Q360.12 0.45 357.54-0.73 354.97-1.9 353.47-3.93 351.97-5.95 351.87-8.45L351.87-8.45 357.76-8.45Q357.92-6.7 359.44-5.53 360.97-4.35 363.26-4.35L363.26-4.35Q365.67-4.35 366.99-5.28 368.31-6.2 368.31-7.65L368.31-7.65Q368.31-9.2 366.84-9.95 365.37-10.7 362.17-11.6L362.17-11.6Q359.06-12.45 357.12-13.25 355.17-14.05 353.74-15.7 352.31-17.35 352.31-20.05L352.31-20.05Q352.31-22.25 353.62-24.08 354.92-25.9 357.34-26.95 359.76-28 362.92-28L362.92-28Q367.62-28 370.49-25.63 373.37-23.25 373.56-19.15L373.56-19.15 367.87-19.15Q367.72-21 366.37-22.1 365.01-23.2 362.72-23.2L362.72-23.2Q360.47-23.2 359.26-22.35 358.06-21.5 358.06-20.1L358.06-20.1Q358.06-19 358.87-18.25 359.67-17.5 360.81-17.07 361.97-16.65 364.22-16L364.22-16Q367.22-15.2 369.14-14.38 371.06-13.55 372.47-11.95 373.87-10.35 373.92-7.7L373.92-7.7Q373.92-5.35 372.62-3.5 371.31-1.65 368.94-0.6 366.56 0.45 363.37 0.45L363.37 0.45Z" opacity="1" transform="matrix(1,0,0,1,0,0)" fill="#000000" class="undefined-text-0" data-fill-palette-color="primary" id="text-0"></path></svg></g></svg></g></svg></g></svg></g><g transform="matrix(1,0,0,1,53.48769659183903,0)"><svg viewBox="0 0 53.024606816321935 46.41083579682881" height="46.41083579682881" width="53.024606816321935"><g><svg xmlns="http://www.w3.org/2000/svg" data-name="Layer 1" viewBox="0 7.999943475908079 128 112.03453148785005" x="0" y="0" height="46.41083579682881" width="53.024606816321935" class="icon-icon-0" data-fill-palette-color="accent" id="icon-0"><path d="M70 67.38a1.88 1.88 0 0 1 0.43-1.15l4-5A2 2 0 0 1 77.25 61a2 2 0 0 1 0.31 2.78l-2.93 3.63H86.18l26.42-8.31a2 2 0 0 0-0.43-3.87L97.53 53.93 113.38 39a2 2 0 0 0 0.28-2.55 2 2 0 0 0-2.49-0.69L88.49 46l8.73-35.58A2 2 0 0 0 96 8.16a2 2 0 0 0-2.48 0.78L78.21 33.58V13a2 2 0 0 0-3.86-0.73L63.86 38.45 53.66 12.26A2 2 0 0 0 51.42 11 2 2 0 0 0 49.79 13V33.58L34.43 8.94A2 2 0 0 0 32 8.16a2 2 0 0 0-1.17 2.29L39.51 46 16.83 35.77a2 2 0 0 0-2.49 0.69A2 2 0 0 0 14.62 39L30.47 53.93 15.83 55.2a2 2 0 0 0-0.43 3.87l26.42 8.31H53.37l-2.93-3.63A2 2 0 0 1 50.75 61a2 2 0 0 1 2.81 0.31l4 5A1.88 1.88 0 0 1 58 67.38h4V60.53a2 2 0 0 1 4 0v6.85Z" fill="#000000" data-fill-palette-color="accent"></path><path d="M61.89 82.69a7.65 7.65 0 0 0-2.53-6 4.79 4.79 0 0 0-3.17-1.28H44.86a14.41 14.41 0 0 0-4-4.42 2 2 0 0 0-0.71-0.29c-0.55-0.11-13.71-2.6-29.47 8.48a1.79 1.79 0 0 1-0.61 0.19H2a2 2 0 1 0 0 4h8.09A5.58 5.58 0 0 0 13 82.47c12.83-9 23.82-8.17 26-7.89 2.84 2.22 5.44 8.55 7 13.89a2 2 0 0 1-1.19 2.21c-0.41 0.15-1.63 0.61-3.92-1.59a49.06 49.06 0 0 1-4.33-4.56c0.15-0.42 0.3-0.84 0.42-1.28a2 2 0 0 0-3.86-1.06A14.57 14.57 0 0 1 20.82 92.84a2 2 0 0 0 0.18 4h0.17a18.8 18.8 0 0 0 13.44-8.36c1.2 1.32 2.66 2.75 3.44 3.5 2.27 2.18 4.31 2.85 6 2.85a6.16 6.16 0 0 0 2.16-0.39 5.92 5.92 0 0 0 3.63-7 60 60 0 0 0-2.86-8h9.24a1.91 1.91 0 0 1 0.33 0.09 3.93 3.93 0 0 1 1.39 2.9 4.83 4.83 0 0 1-1.69 3A2 2 0 0 0 56 88.24c1.56 1.73 2.23 3.34 2 4.8-0.39 2.42-3.1 4-3.12 4a2 2 0 0 0-0.88 2.47 5.63 5.63 0 0 1 0.17 4.68C53 106.46 50 107.34 50 107.34a2 2 0 0 0-1.36 1.26 2 2 0 0 0 0.27 1.82c1 1.36 1.38 2.53 1.12 3.45A4.11 4.11 0 0 1 47.91 116H39.46a4.73 4.73 0 0 1-3-0.84A1.62 1.62 0 0 1 36 113.8a2.06 2.06 0 0 0 0-0.35c-0.08-0.75 0-2.55 0.73-3.28 0.12-0.12 0.45-0.45 1.46-0.36h0.11l2.86 0.09a2 2 0 1 0 0.13-4l-2.81-0.09a3 3 0 0 1-1.94-3.17c0.2-0.88 1.14-3.38 5.12-2.76A2 2 0 1 0 42.31 96c-6.82-1.06-9.3 4-9.68 6l0 0.11a6.61 6.61 0 0 0 1.4 5.18l-0.13 0.12c-2 2.08-1.93 5.41-1.86 6.3 0 0.11 0 0.21 0 0.32H18.83a1.42 1.42 0 0 1-0.52-0.18l-6.06-4.67a5.26 5.26 0 0 0-3-1H2a2 2 0 1 0 0 4H9.25a1.41 1.41 0 0 1 0.53 0.18l6.05 4.67a5.25 5.25 0 0 0 3 1H33.59a8.4 8.4 0 0 0 5.72 2h9a2 2 0 0 0 0.73-0.14c0.38-0.15 3.79-1.55 4.76-4.86a6.76 6.76 0 0 0-0.46-4.82A10.13 10.13 0 0 0 57.69 106a8.78 8.78 0 0 0 0.48-6.43 9.84 9.84 0 0 0 3.72-5.82A8.81 8.81 0 0 0 60.1 87 7.88 7.88 0 0 0 61.89 82.69Z" fill="#000000" data-fill-palette-color="accent"></path><path d="M2 97.2H5a2 2 0 1 0 0-4H2a2 2 0 1 0 0 4Z" fill="#000000" data-fill-palette-color="accent"></path><path d="M126 108.12h-7.26a5.24 5.24 0 0 0-3 1l-6.09 4.7a1.47 1.47 0 0 1-0.5 0.17H96c0-0.11 0-0.21 0-0.32 0.07-0.89 0.19-4.22-1.86-6.3l-0.13-0.12a6.61 6.61 0 0 0 1.4-5.18l0-0.11c-0.38-2-2.87-7.06-9.68-6a2 2 0 1 0 0.62 3.92c4-0.62 4.93 1.91 5.12 2.76a3 3 0 0 1-1.94 3.18l-2.8 0.09a2 2 0 1 0 0.13 4l2.86-0.09h0.11c1-0.09 1.34 0.24 1.46 0.36 0.73 0.73 0.81 2.53 0.73 3.27a1.88 1.88 0 0 0 0 0.36 1.62 1.62 0 0 1-0.39 1.38 4.71 4.71 0 0 1-3 0.85H80.09A4.1 4.1 0 0 1 78 113.88c-0.27-0.93 0.11-2.09 1.12-3.45a2 2 0 0 0 0.27-1.82A2 2 0 0 0 78 107.35s-3-0.88-4.16-3.17a5.63 5.63 0 0 1 0.17-4.68A2 2 0 0 0 73.18 97S70.44 95.46 70 93c-0.24-1.46 0.43-3.07 2-4.8a2 2 0 0 0-0.25-2.88 4.86 4.86 0 0 1-1.69-2.93 3.82 3.82 0 0 1 1.34-2.88 1.11 1.11 0 0 1 0.36-0.13h9.25a60 60 0 0 0-2.86 8 5.92 5.92 0 0 0 3.63 7 6.17 6.17 0 0 0 2.16 0.39c1.65 0 3.69-0.67 6-2.85 0.78-0.75 2.24-2.18 3.44-3.5a18.8 18.8 0 0 0 13.44 8.36H107a2 2 0 0 0 0.17-4A14.7 14.7 0 0 1 94.93 82.18a2 2 0 0 0-3.86 1.06c0.12 0.44 0.27 0.86 0.42 1.28a49.07 49.07 0 0 1-4.33 4.56c-2.29 2.21-3.52 1.74-3.92 1.59A2 2 0 0 1 82 88.47c1.52-5.34 4.12-11.67 7-13.89 2.18-0.28 13.16-1.12 26 7.89a5.59 5.59 0 0 0 2.92 0.91H126a2 2 0 1 0 0-4h-8.09a1.81 1.81 0 0 1-0.61-0.18c-15.77-11.08-28.92-8.6-29.47-8.48a2 2 0 0 0-0.71 0.29 14.41 14.41 0 0 0-4 4.42H71.8a4.79 4.79 0 0 0-3.16 1.28 7.65 7.65 0 0 0-2.53 6A7.88 7.88 0 0 0 67.9 87a8.81 8.81 0 0 0-1.79 6.67 9.84 9.84 0 0 0 3.72 5.82 8.78 8.78 0 0 0 0.48 6.43 10.13 10.13 0 0 0 4.33 4.22 6.76 6.76 0 0 0-0.46 4.82c1 3.31 4.38 4.71 4.76 4.86a2 2 0 0 0 0.73 0.14h9a8.4 8.4 0 0 0 5.72-2h14.76a5.24 5.24 0 0 0 3-1l6.09-4.7a1.45 1.45 0 0 1 0.5-0.18H126a2 2 0 1 0 0-4Z" fill="#000000" data-fill-palette-color="accent"></path><path d="M126 93.24h-3a2 2 0 1 0 0 4h3a2 2 0 1 0 0-4Z" fill="#000000" data-fill-palette-color="accent"></path></svg><g></g></g></svg></g><g></g></svg></g></svg></g></svg></g></svg></g></svg><rect width="320" height="360" fill="none" stroke="none" visibility="hidden"></rect></g></svg></g></svg>